<svg width="512" height="512" viewBox="0 0 512 512" fill="none" xmlns="http://www.w3.org/2000/svg">
<path d="M306.95 31.0123C320.737 29.2447 333.464 37.0223 338.414 49.7494C341.242 57.1735 340.888 65.3047 337 72.3752C333.464 79.7993 327.808 85.1022 320.384 87.9305C320.03 87.9305 318.616 88.6375 317.909 88.9911C294.576 100.658 276.546 121.516 268.415 146.616C266.647 151.919 265.587 157.222 264.879 162.525C264.526 166.06 261.698 169.242 257.809 169.949C257.102 170.303 256.748 170.303 256.041 170.303C252.86 170.303 250.031 168.889 248.264 166.06C248.087 165.884 247.999 165.619 247.91 165.354C247.822 165.088 247.733 164.823 247.557 164.646C247.203 164.293 246.85 164.293 246.85 163.939C234.476 144.849 213.264 133.536 190.639 133.536H188.871C182.508 133.889 176.497 132.122 171.548 127.879C166.599 123.637 163.77 117.98 163.063 111.617C162.003 100.657 168.72 90.4052 179.326 86.8699C179.472 86.8699 179.619 86.8092 179.79 86.7382C180.033 86.6377 180.325 86.5164 180.74 86.5164H181.093C181.093 86.5164 182.154 86.1628 182.861 86.1628C203.012 82.274 222.81 87.9305 237.658 99.597C245.082 67.4258 269.475 40.9112 302 32.0729C302.707 31.7194 304.475 31.3659 304.475 31.3659H304.828C305.182 31.3659 305.535 31.2775 305.889 31.1891C306.242 31.1008 306.596 31.0123 306.95 31.0123Z" fill="#E8E0CE"/>
<path d="M255.687 186.918C300.232 149.091 367.756 151.566 409.472 193.282C431.037 214.494 442.35 243.483 442.35 273.886C442.35 304.29 430.684 332.572 409.119 354.138L285.384 477.873C283.616 479.287 281.495 480.347 279.02 480.347H232.001C229.526 480.347 227.405 479.64 225.637 477.873L100.488 352.724C57.7112 308.179 58.0647 237.12 101.902 193.282C143.972 151.566 211.143 149.444 255.687 186.918Z" fill="#E8E0CE"/>
<path fill-rule="evenodd" clip-rule="evenodd" d="M348.353 45.9237L348.366 45.9584C352.203 56.0312 351.823 67.3234 346.482 77.2296C341.806 86.8845 334.17 94.0749 324.175 97.8826L323.204 98.2525C323.037 98.3343 322.858 98.4235 322.673 98.516C301.89 108.907 285.796 127.518 278.547 149.898L278.533 149.941L278.518 149.985C277.285 153.684 276.431 157.464 275.806 161.39C322.015 139.589 379.148 147.923 416.973 185.721C440.699 209.076 453 240.855 453 273.886C453 307.107 440.217 338.101 416.65 361.668L292.497 485.82L292.037 486.189C289.11 488.53 284.706 490.997 279.02 490.997H232.001C227.245 490.997 222.225 489.522 218.107 485.403L92.8814 360.178L92.8067 360.1C46.0477 311.409 46.3999 233.723 94.3718 185.751L94.3876 185.735L94.4036 185.72C130.477 149.949 183.378 140.8 228.028 158.263C217.844 149.275 204.576 144.185 190.639 144.185H189.143C180.434 144.599 171.774 142.1 164.617 135.965C157.504 129.868 153.467 121.687 152.478 112.793L152.47 112.718L152.463 112.642C150.916 96.6565 160.722 81.8449 175.958 76.7665L177.597 76.22H177.772C178.257 76.1043 178.811 76.0013 179.42 75.9367C179.867 75.8314 180.598 75.6773 181.473 75.5869C199.276 72.3015 216.774 75.4313 231.621 83.1092C242.957 53.9404 267.316 30.6861 298.573 21.9703C299.613 21.5798 300.537 21.35 300.873 21.2665L300.919 21.2549C301.313 21.1565 301.663 21.0772 301.911 21.0227C302.038 20.995 302.145 20.9724 302.225 20.9557L302.326 20.9348L302.362 20.9277L302.375 20.9249L302.381 20.9238L302.384 20.9233C302.384 20.9231 302.386 20.9228 304.475 31.3658C304.475 31.3658 302.707 31.7194 302 32.0728C273.22 39.8935 250.807 61.5543 240.884 88.7276C239.592 92.2635 238.513 95.8927 237.658 99.5969C234.703 97.2754 231.552 95.1918 228.242 93.3741C214.916 86.0572 199.002 83.0478 182.861 86.1628C182.154 86.1628 181.093 86.5163 181.093 86.5163H180.739C180.326 86.5163 180.033 86.6375 179.79 86.738C179.619 86.809 179.472 86.8698 179.326 86.8698C168.72 90.4051 162.003 100.657 163.063 111.617C163.77 117.98 166.599 123.637 171.548 127.879C176.497 132.122 182.507 133.889 188.871 133.536H190.639C213.264 133.536 234.476 144.849 246.85 163.939C246.85 164.158 246.985 164.241 247.171 164.356C247.286 164.428 247.421 164.511 247.556 164.646C247.733 164.823 247.822 165.088 247.91 165.354C247.999 165.619 248.087 165.884 248.264 166.06C250.031 168.889 252.86 170.303 256.041 170.303C256.748 170.303 257.102 170.303 257.809 169.949C261.698 169.242 264.526 166.06 264.879 162.525C265.587 157.222 266.647 151.919 268.415 146.616C276.546 121.516 294.576 100.658 317.909 88.991C318.616 88.6374 320.03 87.9305 320.383 87.9305C327.808 85.1021 333.464 79.7992 337 72.3751C340.888 65.3046 341.242 57.1734 338.414 49.7493C333.464 37.0223 320.737 29.2446 306.95 31.0123C306.596 31.0123 306.242 31.1007 305.889 31.189C305.535 31.2774 305.182 31.3658 304.828 31.3658H304.475L302.386 20.9228L303.42 20.7159H303.882C304.369 20.6079 305.122 20.4669 305.989 20.4003C324.554 18.1986 341.691 28.7936 348.339 45.8891L348.353 45.9237ZM255.687 186.918C211.143 149.444 143.972 151.565 101.902 193.282C58.0646 237.119 57.7111 308.179 100.488 352.723L225.637 477.873C227.405 479.64 229.526 480.347 232.001 480.347H279.02C281.495 480.347 283.616 479.287 285.384 477.873L409.119 354.137C430.684 332.572 442.35 304.29 442.35 273.886C442.35 243.483 431.037 214.494 409.472 193.282C367.756 151.565 300.232 149.091 255.687 186.918ZM175.727 76.8936C175.651 76.9236 175.636 76.9314 175.713 76.8995L175.715 76.8986C175.719 76.897 175.723 76.8953 175.727 76.8936Z" fill="#E8E0CE"/>
<path d="M409.472 193.282C367.756 151.566 300.232 149.091 255.687 186.919C211.143 149.444 143.972 151.566 101.902 193.282C58.0648 237.12 57.7112 308.179 100.488 352.724C100.842 353.077 100.842 353.077 101.195 353.431L225.637 477.873C227.405 479.64 229.526 480.347 232.001 480.347H279.02C281.495 480.347 283.616 479.287 285.384 477.873L409.119 354.138C430.684 332.572 442.351 304.29 442.351 273.887C442.351 243.483 431.038 214.494 409.472 193.282Z" fill="#4A001F"/>
<path d="M421.845 297.927C420.785 300.048 419.724 302.169 417.956 303.937C415.482 306.765 412.3 308.179 408.765 308.532C405.229 308.886 401.694 307.472 398.866 305.351C398.512 304.997 398.512 304.997 398.159 304.644C399.926 305.704 402.048 306.411 404.169 306.411C406.997 306.411 409.118 304.997 410.886 302.876C415.128 297.927 414.775 290.502 409.825 285.907C406.997 283.432 403.108 282.018 399.219 282.371C395.331 282.725 391.795 284.492 388.967 287.321C381.896 295.098 382.604 307.472 390.735 314.189C395.331 318.431 401.341 320.552 407.351 320.552C408.058 320.552 408.411 320.552 409.118 320.552C410.179 320.552 411.593 320.199 412.653 320.199C409.825 325.502 406.643 330.098 402.755 334.694L358.564 289.795C355.028 282.018 356.089 272.472 361.745 265.755C363.866 262.927 367.402 261.16 370.937 260.806C374.472 260.452 378.008 261.513 380.836 263.988C381.189 264.341 381.189 264.341 381.543 264.695C377.301 262.22 371.644 262.927 368.462 266.816C364.22 271.765 364.927 279.543 369.876 283.785C376.24 289.088 385.432 288.028 390.735 282.018C393.916 278.129 395.684 273.18 394.977 268.23C394.623 263.281 392.149 258.685 388.26 255.15C382.957 250.907 376.594 248.786 369.523 249.493C366.695 249.847 363.866 250.554 361.392 251.614C362.452 250.554 363.866 249.493 364.573 248.433C369.169 243.13 372.351 236.413 373.058 229.695L418.663 274.24C422.199 278.482 423.613 283.432 423.613 288.735C423.259 291.917 422.552 295.098 421.845 297.927Z" fill="#FAB118"/>
<path d="M375.533 362.622L371.998 329.037L390.382 347.421L375.533 362.622Z" fill="#71AFB5"/>
<path d="M114.628 341.057L114.275 340.704C110.032 336.461 106.497 332.219 103.315 327.623C110.032 329.037 117.81 330.098 127.002 331.158C126.295 335.754 123.82 341.764 120.638 347.421L114.628 341.057Z" fill="#F095A1"/>
<path d="M116.75 234.645C115.336 234.999 113.569 235.706 112.155 236.766L93.4176 249.847C92.357 249.14 91.6499 248.786 90.5894 248.079C93.0641 238.534 97.3064 229.342 102.963 220.857C106.145 224.746 110.741 229.696 116.75 234.645Z" fill="#8B0000"/>
<path d="M359.271 214.494C360.685 216.969 361.392 220.15 361.392 222.979C361.746 228.988 359.624 234.999 355.736 239.594C353.261 242.423 350.079 243.837 346.544 244.19C343.009 244.544 339.473 243.13 336.645 241.008C336.292 240.655 336.292 240.655 335.938 240.301C337.706 241.362 339.827 242.069 341.948 242.069C344.776 242.069 346.897 240.655 348.665 238.534C352.907 233.584 352.554 226.16 347.604 221.564C341.594 216.261 332.049 216.615 326.746 222.979C323.211 226.867 321.797 231.817 322.15 236.766C322.504 241.716 324.625 246.665 328.514 249.847C333.11 254.089 339.12 256.21 345.13 256.21C345.837 256.21 346.19 256.21 346.897 256.21C350.079 255.857 352.907 255.15 355.736 254.089C354.322 255.15 352.907 256.564 351.847 257.978C347.605 263.281 344.776 269.644 344.069 276.008L298.11 229.342C292.454 221.211 292.454 209.544 299.171 201.767C301.292 198.939 304.828 197.171 308.363 196.817C311.898 196.464 315.433 197.524 318.262 199.999C318.615 200.353 318.615 200.353 318.969 200.706C314.726 198.232 309.07 198.939 305.888 202.827C303.767 205.302 303.06 208.484 303.06 211.666C303.06 214.847 304.828 217.676 307.302 219.797C310.484 222.271 314.019 223.686 318.262 222.979C322.15 222.625 325.686 220.857 328.16 217.676C331.342 213.787 333.11 208.837 332.403 203.888C332.049 198.939 329.575 194.343 325.686 190.807C314.726 181.969 298.818 183.383 289.979 193.989C285.383 199.646 282.555 206.363 282.202 213.433L268.414 199.646C284.323 186.919 303.413 179.848 322.857 178.434L359.271 214.494Z" fill="#FAB118"/>
<path d="M357.857 367.925L318.615 360.855L353.615 324.795L357.857 367.925Z" fill="#71AFB5"/>
<path d="M236.597 320.553C239.779 319.492 243.314 318.785 246.849 317.724V373.582L233.415 360.855C237.657 347.067 239.425 332.926 236.597 320.553Z" fill="#F095A1"/>
<path d="M122.052 246.311C122.406 246.665 123.467 247.372 123.82 248.786L124.527 260.806C124.527 263.281 125.588 265.402 126.648 267.169C118.517 263.634 110.739 260.099 104.729 256.564L119.224 246.311C120.285 245.958 121.345 246.311 122.052 246.311Z" fill="#8B0000"/>
<path d="M154.224 263.634C155.284 262.574 156.698 262.574 157.052 262.927C157.405 262.927 158.819 263.634 159.173 265.048L160.587 269.644C161.648 273.533 164.476 276.361 167.658 278.129C159.173 277.422 150.688 276.008 142.911 273.887C145.032 273.18 146.799 272.119 148.214 270.351L154.224 263.634Z" fill="#8B0000"/>
<path d="M186.75 271.412L189.932 265.048C190.639 263.634 191.699 263.281 192.406 263.281C192.76 263.281 194.174 263.281 195.234 264.341L199.477 269.998C200.891 272.119 203.012 273.533 205.133 274.594C197.709 276.361 189.578 277.422 180.74 277.775C182.861 276.715 185.336 274.24 186.75 271.412Z" fill="#8B0000"/>
<path d="M226.697 251.968C227.05 250.554 228.111 249.847 228.465 249.847C228.818 249.847 230.232 249.494 231.293 250.201L241.545 258.685C237.303 261.513 230.939 265.402 222.455 268.938C223.162 267.523 223.869 266.109 224.222 264.342L226.697 251.968Z" fill="#8B0000"/>
<path d="M347.957 304.644L309.422 344.593L287.857 323.027L276.191 335.047L284.675 343.532L287.857 339.997L293.16 345.653L285.382 353.431L267.706 335.754L291.039 312.421L310.837 332.219L339.119 304.29L320.028 284.846L305.887 299.341L314.372 307.826L320.028 301.816L322.149 304.29L310.837 315.25L297.756 302.169L321.442 278.129L347.957 304.644Z" fill="#F52D53"/>
<path d="M280.08 251.968L264.878 267.17V249.493L271.595 243.483L280.08 251.968Z" fill="#F52D53"/>
<path d="M264.878 276.715L287.504 298.987L264.878 321.613V276.715Z" fill="#F52D53"/>
<path d="M264.878 390.198V349.895L285.03 370.047L265.232 390.551L264.878 390.198Z" fill="#F52D53"/>
<path d="M294.928 282.371L303.413 273.887L301.645 272.119L307.302 266.463L311.544 271.059L293.868 288.735L277.252 272.119L296.342 252.675L300.231 256.564L284.676 272.119L294.928 282.371Z" fill="#F52D53"/>
<path d="M264.878 233.231V220.857L271.242 227.221L264.878 233.231Z" fill="#F52D53"/>
<path d="M294.574 385.956L301.645 424.49L278.312 402.925L294.574 385.956Z" fill="#71AFB5"/>
<path d="M246.848 247.372L239.07 241.009C237.656 239.948 236.242 239.241 234.828 238.534C240.131 233.585 244.02 228.635 246.848 223.332V247.372Z" fill="#8B0000"/>
<path d="M212.557 262.22C212.203 263.281 211.496 263.635 211.143 263.635C210.789 263.635 209.729 263.635 209.022 262.928L204.779 257.271C204.426 256.564 203.719 256.21 203.365 255.503C207.608 254.443 211.143 253.029 214.678 251.615L212.557 262.22Z" fill="#8B0000"/>
<path d="M179.325 259.746L176.143 266.109C175.789 267.17 174.729 267.17 174.022 267.17C173.315 267.17 172.608 266.816 172.254 265.756L170.84 261.16C170.486 260.453 170.133 259.392 169.779 258.685C172.254 259.039 174.729 259.039 177.557 259.039C178.264 259.039 178.618 259.039 179.325 259.039C179.325 259.392 179.325 259.392 179.325 259.746Z" fill="#8B0000"/>
<path d="M145.739 255.15L139.729 261.514C139.022 262.221 137.962 262.221 137.608 261.867C137.254 261.867 136.194 261.16 136.194 260.099L135.487 248.079C139.376 250.201 143.264 251.968 147.507 253.736C146.8 254.089 146.093 254.797 145.739 255.15Z" fill="#8B0000"/>
<path d="M87.407 267.523C105.79 279.19 138.669 295.806 175.082 295.806C209.374 295.806 233.414 285.2 246.848 276.715V298.634C165.89 324.441 107.558 310.3 92.7099 306.058C88.4676 293.684 86.3464 280.604 87.407 267.523Z" fill="#9E6100"/>
<path d="M145.385 331.865C147.86 331.865 150.335 331.865 153.163 331.865C154.223 331.865 155.638 331.865 156.698 331.865C155.991 342.471 149.274 356.612 141.85 367.925L134.072 360.148C138.668 352.724 144.325 342.118 145.385 331.865Z" fill="#F095A1"/>
<path d="M174.375 331.158C178.971 330.805 183.92 330.451 188.869 329.744C191.344 348.128 176.142 374.996 165.183 391.258L154.931 381.006C162.708 369.339 174.021 349.542 174.375 331.158Z" fill="#F095A1"/>
<path d="M206.546 327.269C210.788 326.562 215.031 325.855 219.273 324.795C225.283 350.956 201.597 391.258 186.395 412.47L178.264 404.339C188.87 388.783 210.435 354.845 206.546 327.269Z" fill="#F095A1"/>
<path d="M226.343 378.885L239.07 390.551L203.363 429.44L198.768 424.844C205.838 416.359 217.505 399.036 226.343 378.885Z" fill="#F095A1"/>
<path d="M252.151 403.278L258.515 408.934L222.455 448.53L216.445 442.52L252.151 403.278Z" fill="#F7611B"/>
<path d="M311.545 377.824L352.908 385.248L318.969 419.187L311.545 377.824Z" fill="#71AFB5"/>
<path d="M422.553 252.675L350.787 180.202C367.756 184.09 383.665 192.575 396.745 205.656C409.826 219.09 418.664 235.352 422.553 252.675Z" fill="#C72747"/>
<path d="M170.487 178.787C180.033 180.202 188.164 187.626 190.285 197.878C190.992 201.767 190.285 205.302 188.164 208.837C186.043 212.019 182.861 214.14 178.972 214.847C177.912 215.201 176.851 215.201 176.144 214.847H176.497C179.326 214.14 181.447 212.726 182.861 210.605C184.275 208.484 184.982 205.656 184.275 202.827C183.568 199.646 181.8 196.817 178.972 195.05C176.144 193.282 172.962 192.575 169.78 193.282C165.892 193.989 162.356 196.464 160.235 199.646C158.114 203.181 157.053 207.07 158.114 210.959C159.175 216.262 162.003 220.504 166.599 223.332C169.78 225.453 173.669 226.514 177.558 226.514C178.972 226.514 180.033 226.514 181.447 226.16C188.517 224.746 194.174 220.857 198.063 214.847C201.951 208.837 203.366 202.12 201.951 195.05C200.537 188.686 197.709 182.676 193.467 178.08C209.022 179.848 224.577 185.505 238.011 195.05C236.597 206.009 228.82 233.938 187.103 239.948C150.336 245.251 123.822 218.029 114.276 206.009C114.63 205.656 114.63 205.656 114.983 205.302C130.539 190.454 149.983 181.262 170.487 178.787Z" fill="#F7611B"/>
<path d="M235.182 461.257L271.596 421.308L277.252 426.611L244.727 462.318H236.243L235.182 461.257Z" fill="#F7611B"/>
<path d="M275.839 462.318H269.122L290.334 438.985L294.93 443.227L275.839 462.318Z" fill="#F7611B"/>
<path d="M338.413 49.7494C333.464 37.0224 320.737 29.2447 306.949 31.0124C306.242 31.0124 305.535 31.3659 304.828 31.3659H304.474C304.474 31.3659 302.707 31.7194 302 32.073C269.475 40.9112 245.082 67.4258 237.657 99.597C222.809 87.9305 203.012 82.2741 182.86 86.1629C182.153 86.1629 181.093 86.5164 181.093 86.5164H180.739C180.032 86.5164 179.679 86.8699 179.325 86.8699C168.719 90.4052 162.002 100.658 163.063 111.617C163.77 117.98 166.598 123.637 171.548 127.879C176.497 132.122 182.507 133.889 188.87 133.536C189.224 133.536 190.285 133.536 190.638 133.536C213.264 133.536 234.476 144.849 246.849 163.939C246.849 164.293 247.203 164.293 247.556 164.646C247.91 165 247.91 165.707 248.263 166.06C250.031 168.889 252.859 170.303 256.041 170.303C256.748 170.303 257.102 170.303 257.809 169.949C261.697 169.242 264.526 166.06 264.879 162.525C265.586 157.222 266.647 151.919 268.414 146.616C276.546 121.516 294.576 100.658 317.908 88.9911C318.616 88.6376 320.03 87.9305 320.383 87.9305C327.807 85.1023 333.464 79.7994 336.999 72.3753C340.888 65.3047 341.241 57.1735 338.413 49.7494Z" fill="#4A001F"/>
<path d="M191.345 115.152C190.285 115.152 188.163 115.152 187.81 115.152C186.042 115.152 184.628 114.799 183.568 113.738C182.507 112.678 181.446 111.264 181.446 109.85C181.093 107.021 182.861 104.547 185.335 103.84C185.335 103.84 185.335 103.84 185.689 103.84C186.042 103.84 186.396 103.84 186.396 103.84C209.375 99.5972 231.648 111.617 241.193 131.768C227.052 121.162 209.375 115.152 191.345 115.152Z" fill="#FAB118"/>
<path d="M321.443 64.951C320.029 67.7792 317.908 69.9004 315.079 70.961C314.726 70.961 312.251 72.0215 310.837 72.7286C287.858 83.688 269.474 102.425 258.161 125.051C256.747 122.223 255.687 119.394 253.919 116.92C254.98 85.4556 276.545 57.5269 307.302 49.0422C307.655 49.0422 308.362 48.6886 308.716 48.6886C309.069 48.6886 309.069 48.6886 309.423 48.6886C314.726 47.9816 319.675 51.1634 321.797 56.1128C322.504 58.941 322.504 62.1227 321.443 64.951Z" fill="#F7611B"/>
<path d="M328.513 400.097C331.833 400.097 334.523 397.406 334.523 394.087C334.523 390.767 331.833 388.077 328.513 388.077C325.194 388.077 322.503 390.767 322.503 394.087C322.503 397.406 325.194 400.097 328.513 400.097Z" fill="#4A001F"/>
<path d="M344.071 357.673C347.39 357.673 350.081 354.982 350.081 351.663C350.081 348.344 347.39 345.653 344.071 345.653C340.751 345.653 338.061 348.344 338.061 351.663C338.061 354.982 340.751 357.673 344.071 357.673Z" fill="#4A001F"/>
<path d="M106.145 299.341C109.464 299.341 112.155 296.65 112.155 293.331C112.155 290.012 109.464 287.321 106.145 287.321C102.826 287.321 100.135 290.012 100.135 293.331C100.135 296.65 102.826 299.341 106.145 299.341Z" fill="#4A001F"/>
<path d="M135.133 308.179C138.452 308.179 141.143 305.488 141.143 302.169C141.143 298.85 138.452 296.159 135.133 296.159C131.814 296.159 129.123 298.85 129.123 302.169C129.123 305.488 131.814 308.179 135.133 308.179Z" fill="#4A001F"/>
<path d="M166.244 308.533C168.587 308.533 170.486 306.633 170.486 304.29C170.486 301.947 168.587 300.048 166.244 300.048C163.901 300.048 162.001 301.947 162.001 304.29C162.001 306.633 163.901 308.533 166.244 308.533Z" fill="#4A001F"/>
<path d="M198.063 306.058C200.21 306.058 201.951 304.317 201.951 302.169C201.951 300.021 200.21 298.28 198.063 298.28C195.915 298.28 194.174 300.021 194.174 302.169C194.174 304.317 195.915 306.058 198.063 306.058Z" fill="#4A001F"/>
<path d="M234.829 299.341C238.148 299.341 240.839 296.65 240.839 293.331C240.839 290.012 238.148 287.321 234.829 287.321C231.51 287.321 228.819 290.012 228.819 293.331C228.819 296.65 231.51 299.341 234.829 299.341Z" fill="#4A001F"/>
<path d="M380.837 351.31C382.985 351.31 384.726 349.569 384.726 347.421C384.726 345.273 382.985 343.532 380.837 343.532C378.689 343.532 376.948 345.273 376.948 347.421C376.948 349.569 378.689 351.31 380.837 351.31Z" fill="#4A001F"/>
<path d="M289.98 407.521C292.128 407.521 293.869 405.78 293.869 403.632C293.869 401.484 292.128 399.743 289.98 399.743C287.832 399.743 286.091 401.484 286.091 403.632C286.091 405.78 287.832 407.521 289.98 407.521Z" fill="#4A001F"/>
</svg>
