<svg width="24" height="24" viewBox="0 0 24 24" fill="none" xmlns="http://www.w3.org/2000/svg">
<g clip-path="url(#clip0_197_2)">
<circle cx="12" cy="12" r="12" fill="#850037"/>
<path d="M18.6245 9.27533C16.8253 7.47613 13.9131 7.3694 11.9919 9.00087C10.0707 7.38464 7.17368 7.47613 5.35924 9.27533C3.46855 11.166 3.4533 14.2307 5.29825 16.1519C5.31349 16.1672 5.31349 16.1672 5.32874 16.1824L10.6958 21.5495C10.7721 21.6258 10.8636 21.6563 10.9703 21.6563H12.9982C13.1049 21.6563 13.1964 21.6105 13.2727 21.5495L18.6093 16.2129C19.5394 15.2828 20.0425 14.063 20.0425 12.7517C20.0425 11.4405 19.5546 10.1902 18.6245 9.27533Z" fill="#322330"/>
<path d="M19.1586 13.7886C19.1128 13.8801 19.0671 13.9716 18.9908 14.0478C18.8841 14.1698 18.7469 14.2308 18.5944 14.246C18.4419 14.2613 18.2895 14.2003 18.1675 14.1088C18.1522 14.0935 18.1522 14.0935 18.137 14.0783C18.2132 14.124 18.3047 14.1545 18.3962 14.1545C18.5182 14.1545 18.6097 14.0935 18.6859 14.002C18.8689 13.7886 18.8536 13.4684 18.6402 13.2702C18.5182 13.1634 18.3505 13.1024 18.1827 13.1177C18.015 13.1329 17.8625 13.2092 17.7406 13.3312C17.4356 13.6666 17.4661 14.2003 17.8168 14.49C18.015 14.6729 18.2742 14.7644 18.5334 14.7644C18.5639 14.7644 18.5792 14.7644 18.6097 14.7644C18.6554 14.7644 18.7164 14.7492 18.7621 14.7492C18.6402 14.9779 18.5029 15.1761 18.3352 15.3743L16.4293 13.4379C16.2768 13.1024 16.3225 12.6908 16.5665 12.4011C16.658 12.2791 16.8105 12.2028 16.9629 12.1876C17.1154 12.1724 17.2679 12.2181 17.3899 12.3248C17.4051 12.3401 17.4051 12.3401 17.4204 12.3553C17.2374 12.2486 16.9934 12.2791 16.8562 12.4468C16.6732 12.6603 16.7037 12.9957 16.9172 13.1787C17.1916 13.4074 17.5881 13.3617 17.8168 13.1024C17.954 12.9347 18.0303 12.7213 17.9998 12.5078C17.9845 12.2943 17.8778 12.0961 17.7101 11.9436C17.4813 11.7607 17.2069 11.6692 16.9019 11.6997C16.78 11.7149 16.658 11.7454 16.5513 11.7912C16.597 11.7454 16.658 11.6997 16.6885 11.6539C16.8867 11.4252 17.0239 11.1355 17.0544 10.8458L19.0213 12.767C19.1738 12.95 19.2348 13.1634 19.2348 13.3921C19.2196 13.5294 19.1891 13.6666 19.1586 13.7886Z" fill="#FAB118"/>
<path d="M17.1608 16.5789L17.0083 15.1304L17.8012 15.9232L17.1608 16.5789Z" fill="#71AFB5"/>
<path d="M5.90833 15.6488L5.89308 15.6335C5.71011 15.4506 5.55764 15.2676 5.42041 15.0694C5.71011 15.1304 6.04556 15.1761 6.44199 15.2218C6.41149 15.4201 6.30476 15.6793 6.16753 15.9232L5.90833 15.6488Z" fill="#F095A1"/>
<path d="M5.99989 11.0593C5.9389 11.0745 5.86267 11.105 5.80168 11.1508L4.99356 11.7149C4.94782 11.6844 4.91732 11.6692 4.87158 11.6387C4.97831 11.227 5.16128 10.8306 5.40524 10.4646C5.54247 10.6324 5.74069 10.8458 5.99989 11.0593Z" fill="#8B0000"/>
<path d="M16.4596 10.1902C16.5206 10.2969 16.5511 10.4341 16.5511 10.5561C16.5663 10.8153 16.4749 11.0745 16.3071 11.2728C16.2004 11.3947 16.0632 11.4557 15.9107 11.471C15.7582 11.4862 15.6058 11.4252 15.4838 11.3337C15.4685 11.3185 15.4685 11.3185 15.4533 11.3033C15.5295 11.349 15.621 11.3795 15.7125 11.3795C15.8345 11.3795 15.9259 11.3185 16.0022 11.227C16.1852 11.0136 16.1699 10.6934 15.9564 10.4951C15.6972 10.2664 15.2856 10.2817 15.0568 10.5561C14.9044 10.7238 14.8434 10.9373 14.8586 11.1508C14.8739 11.3642 14.9654 11.5777 15.1331 11.7149C15.3313 11.8979 15.5905 11.9894 15.8497 11.9894C15.8802 11.9894 15.8955 11.9894 15.9259 11.9894C16.0632 11.9741 16.1852 11.9436 16.3071 11.8979C16.2461 11.9436 16.1852 12.0046 16.1394 12.0656C15.9564 12.2943 15.8345 12.5688 15.804 12.8432L13.8218 10.8306C13.5778 10.4799 13.5778 9.97672 13.8675 9.64128C13.959 9.5193 14.1115 9.44306 14.264 9.42782C14.4165 9.41257 14.5689 9.45831 14.6909 9.56504C14.7062 9.58029 14.7062 9.58029 14.7214 9.59554C14.5384 9.48881 14.2945 9.5193 14.1572 9.68702C14.0658 9.79376 14.0353 9.93098 14.0353 10.0682C14.0353 10.2054 14.1115 10.3274 14.2182 10.4189C14.3555 10.5256 14.5079 10.5866 14.6909 10.5561C14.8586 10.5409 15.0111 10.4646 15.1178 10.3274C15.2551 10.1597 15.3313 9.94623 15.3008 9.73276C15.2856 9.5193 15.1788 9.32108 15.0111 9.16861C14.5384 8.78742 13.8523 8.84841 13.4711 9.30584C13.2729 9.5498 13.1509 9.8395 13.1357 10.1444L12.541 9.5498C13.2272 9.00089 14.0505 8.69594 14.8891 8.63495L16.4596 10.1902Z" fill="#FAB118"/>
<path d="M16.3985 16.8076L14.7061 16.5026L16.2156 14.9474L16.3985 16.8076Z" fill="#71AFB5"/>
<path d="M11.169 14.7644C11.3062 14.7187 11.4587 14.6882 11.6111 14.6425V17.0516L11.0317 16.5026C11.2147 15.908 11.2909 15.2981 11.169 14.7644Z" fill="#F095A1"/>
<path d="M6.22857 11.5625C6.24382 11.5777 6.28956 11.6082 6.30481 11.6692L6.3353 12.1876C6.3353 12.2944 6.38105 12.3858 6.42679 12.4621C6.0761 12.3096 5.74065 12.1571 5.48145 12.0046L6.10659 11.5625C6.15233 11.5472 6.19808 11.5625 6.22857 11.5625Z" fill="#8B0000"/>
<path d="M7.61585 12.3096C7.66159 12.2638 7.72258 12.2638 7.73783 12.2791C7.75308 12.2791 7.81406 12.3096 7.82931 12.3706L7.8903 12.5688C7.93604 12.7365 8.05802 12.8585 8.19525 12.9347C7.82931 12.9042 7.46337 12.8432 7.12793 12.7517C7.21941 12.7213 7.29565 12.6755 7.35664 12.5993L7.61585 12.3096Z" fill="#8B0000"/>
<path d="M9.01897 12.645L9.1562 12.3706C9.1867 12.3096 9.23244 12.2943 9.26293 12.2943C9.27818 12.2943 9.33917 12.2943 9.38491 12.3401L9.56788 12.584C9.62887 12.6755 9.72036 12.7365 9.81184 12.7823C9.49164 12.8585 9.14095 12.9042 8.75977 12.9195C8.85125 12.8737 8.95798 12.767 9.01897 12.645Z" fill="#8B0000"/>
<path d="M10.7416 11.8064C10.7568 11.7454 10.8026 11.7149 10.8178 11.7149C10.833 11.7149 10.894 11.6997 10.9398 11.7302L11.382 12.0961C11.199 12.2181 10.9245 12.3858 10.5586 12.5383C10.5891 12.4773 10.6196 12.4163 10.6348 12.3401L10.7416 11.8064Z" fill="#8B0000"/>
<path d="M15.9719 14.0783L14.3099 15.8012L13.3798 14.8712L12.8767 15.3896L13.2426 15.7555L13.3798 15.603L13.6086 15.847L13.2731 16.1824L12.5107 15.4201L13.5171 14.4137L14.3709 15.2676L15.5907 14.063L14.7674 13.2244L14.1575 13.8496L14.5234 14.2155L14.7674 13.9563L14.8588 14.063L14.3709 14.5357L13.8068 13.9716L14.8284 12.9347L15.9719 14.0783Z" fill="#F52D53"/>
<path d="M13.0443 11.8064L12.3887 12.4621V11.6997L12.6784 11.4405L13.0443 11.8064Z" fill="#F52D53"/>
<path d="M12.3887 12.8737L13.3645 13.8343L12.3887 14.8102V12.8737Z" fill="#F52D53"/>
<path d="M12.3887 17.7682V16.03L13.2578 16.8991L12.4039 17.7834L12.3887 17.7682Z" fill="#F52D53"/>
<path d="M13.6847 13.1177L14.0507 12.7518L13.9744 12.6755L14.2184 12.4316L14.4014 12.6298L13.639 13.3922L12.9224 12.6755L13.7457 11.8369L13.9134 12.0046L13.2426 12.6755L13.6847 13.1177Z" fill="#F52D53"/>
<path d="M12.3887 10.9983V10.4646L12.6631 10.7391L12.3887 10.9983Z" fill="#F52D53"/>
<path d="M13.6692 17.5852L13.9741 19.2472L12.9678 18.3171L13.6692 17.5852Z" fill="#71AFB5"/>
<path d="M11.6107 11.6082L11.2753 11.3338C11.2143 11.288 11.1533 11.2575 11.0923 11.227C11.321 11.0136 11.4887 10.8001 11.6107 10.5714V11.6082Z" fill="#8B0000"/>
<path d="M10.1318 12.2486C10.1165 12.2943 10.086 12.3096 10.0708 12.3096C10.0555 12.3096 10.0098 12.3096 9.97931 12.2791L9.79634 12.0351C9.78109 12.0046 9.7506 11.9894 9.73535 11.9589C9.91832 11.9131 10.0708 11.8522 10.2233 11.7912L10.1318 12.2486Z" fill="#8B0000"/>
<path d="M8.69879 12.1419L8.56156 12.4163C8.54632 12.4621 8.50057 12.4621 8.47008 12.4621C8.43958 12.4621 8.40909 12.4468 8.39384 12.4011L8.33285 12.2029C8.3176 12.1724 8.30236 12.1266 8.28711 12.0961C8.39384 12.1114 8.50057 12.1114 8.62255 12.1114C8.65305 12.1114 8.6683 12.1114 8.69879 12.1114C8.69879 12.1266 8.69879 12.1266 8.69879 12.1419Z" fill="#8B0000"/>
<path d="M7.25028 11.9437L6.99107 12.2181C6.96058 12.2486 6.91484 12.2486 6.89959 12.2334C6.88434 12.2334 6.8386 12.2029 6.8386 12.1571L6.80811 11.6387C6.97583 11.7302 7.14355 11.8064 7.32652 11.8827C7.29602 11.8979 7.26553 11.9284 7.25028 11.9437Z" fill="#8B0000"/>
<path d="M4.73431 12.4773C5.52718 12.9805 6.94519 13.6971 8.51568 13.6971C9.99468 13.6971 11.0315 13.2397 11.6109 12.8737V13.8191C8.11925 14.9321 5.60342 14.3222 4.96302 14.1393C4.78006 13.6056 4.68857 13.0415 4.73431 12.4773Z" fill="#9E6100"/>
<path d="M7.23499 15.2523C7.34172 15.2523 7.44845 15.2523 7.57043 15.2523C7.61618 15.2523 7.67717 15.2523 7.72291 15.2523C7.69241 15.7098 7.40271 16.3197 7.08251 16.8076L6.74707 16.4721C6.94529 16.1519 7.18925 15.6945 7.23499 15.2523Z" fill="#F095A1"/>
<path d="M8.48509 15.2218C8.68331 15.2066 8.89678 15.1914 9.11024 15.1609C9.21697 15.9537 8.56133 17.1125 8.08866 17.8139L7.64648 17.3717C7.98193 16.8686 8.46985 16.0147 8.48509 15.2218Z" fill="#F095A1"/>
<path d="M9.87263 15.0541C10.0556 15.0236 10.2386 14.9931 10.4215 14.9474C10.6807 16.0757 9.65916 17.8139 9.00352 18.7288L8.65283 18.3781C9.11026 17.7072 10.0404 16.2434 9.87263 15.0541Z" fill="#F095A1"/>
<path d="M10.7264 17.2802L11.2753 17.7834L9.73533 19.4606L9.53711 19.2624C9.84206 18.8965 10.3452 18.1493 10.7264 17.2802Z" fill="#F095A1"/>
<path d="M11.8398 18.3323L12.1143 18.5763L10.559 20.284L10.2998 20.0248L11.8398 18.3323Z" fill="#F7611B"/>
<path d="M14.4014 17.2345L16.1853 17.5547L14.7216 19.0184L14.4014 17.2345Z" fill="#71AFB5"/>
<path d="M19.189 11.8369L16.0938 8.71118C16.8256 8.8789 17.5118 9.24484 18.0759 9.809C18.6401 10.3884 19.0213 11.0898 19.189 11.8369Z" fill="#C72747"/>
<path d="M8.31741 8.65018C8.72909 8.71117 9.07978 9.03137 9.17127 9.47355C9.20176 9.64127 9.17127 9.79374 9.07978 9.94622C8.9883 10.0834 8.85107 10.1749 8.68335 10.2054C8.63761 10.2207 8.59187 10.2207 8.56137 10.2054H8.57662C8.6986 10.1749 8.79008 10.1139 8.85107 10.0225C8.91206 9.93097 8.94256 9.80899 8.91206 9.68701C8.88157 9.54978 8.80533 9.4278 8.68335 9.35157C8.56137 9.27533 8.42414 9.24483 8.28692 9.27533C8.11919 9.30582 7.96672 9.41256 7.87524 9.54978C7.78375 9.70226 7.73801 9.86998 7.78375 10.0377C7.82949 10.2664 7.95147 10.4494 8.14969 10.5714C8.28692 10.6628 8.45464 10.7086 8.62236 10.7086C8.68335 10.7086 8.72909 10.7086 8.79008 10.6933C9.09503 10.6324 9.33899 10.4646 9.50671 10.2054C9.67443 9.94622 9.73542 9.65652 9.67443 9.35157C9.61344 9.07711 9.49147 8.81791 9.3085 8.61969C9.97938 8.69593 10.6503 8.93989 11.2297 9.35157C11.1687 9.82424 10.8332 11.0288 9.03404 11.288C7.44831 11.5167 6.30475 10.3427 5.89307 9.82424C5.90831 9.80899 5.90831 9.80899 5.92356 9.79374C6.59445 9.15335 7.43306 8.75692 8.31741 8.65018Z" fill="#F7611B"/>
<path d="M11.1079 20.8329L12.6784 19.11L12.9224 19.3387L11.5196 20.8787H11.1537L11.1079 20.8329Z" fill="#F7611B"/>
<path d="M12.861 20.8786H12.5713L13.4861 19.8723L13.6844 20.0553L12.861 20.8786Z" fill="#F7611B"/>
<path d="M15.5601 3.08486C15.3467 2.53595 14.7978 2.20051 14.2031 2.27674C14.1726 2.27674 14.1421 2.29199 14.1116 2.29199H14.0964C14.0964 2.29199 14.0202 2.30724 13.9897 2.32249C12.5869 2.70367 11.5348 3.84723 11.2146 5.23475C10.5742 4.73158 9.72037 4.48762 8.85127 4.65535C8.82077 4.65535 8.77503 4.67059 8.77503 4.67059H8.75978C8.72929 4.67059 8.71404 4.68584 8.69879 4.68584C8.24137 4.83831 7.95167 5.28049 7.99741 5.75316C8.0279 6.02762 8.14988 6.27158 8.36335 6.45455C8.57681 6.63752 8.83602 6.71375 9.11047 6.6985C9.12572 6.6985 9.17146 6.6985 9.18671 6.6985C10.1625 6.6985 11.0774 7.18642 11.6111 8.00979C11.6111 8.02503 11.6263 8.02503 11.6416 8.04028C11.6568 8.05553 11.6568 8.08602 11.672 8.10127C11.7483 8.22325 11.8703 8.28424 12.0075 8.28424C12.038 8.28424 12.0532 8.28424 12.0837 8.26899C12.2514 8.2385 12.3734 8.10127 12.3887 7.9488C12.4192 7.72008 12.4649 7.49137 12.5412 7.26266C12.8918 6.18009 13.6695 5.28049 14.6758 4.77733C14.7063 4.76208 14.7673 4.73158 14.7825 4.73158C15.1027 4.6096 15.3467 4.38089 15.4992 4.06069C15.6669 3.75575 15.6821 3.40505 15.5601 3.08486Z" fill="#322330"/>
<path d="M9.21696 5.90564C9.17121 5.90564 9.07973 5.90564 9.06448 5.90564C8.98824 5.90564 8.92726 5.89039 8.88151 5.84465C8.83577 5.79891 8.79003 5.73792 8.79003 5.67693C8.77478 5.55495 8.85102 5.44822 8.95775 5.41772C8.95775 5.41772 8.95775 5.41772 8.973 5.41772C8.98825 5.41772 9.00349 5.41772 9.00349 5.41772C9.99458 5.23475 10.9552 5.75316 11.3668 6.62227C10.757 6.16485 9.99458 5.90564 9.21696 5.90564Z" fill="#FAB118"/>
<path d="M14.8283 3.74049C14.7673 3.86247 14.6758 3.95396 14.5538 3.9997C14.5386 3.9997 14.4318 4.04544 14.3709 4.07594C13.3798 4.54861 12.5869 5.35672 12.099 6.33256C12.038 6.21058 11.9923 6.0886 11.916 5.98187C11.9618 4.62485 12.8919 3.4203 14.2184 3.05436C14.2336 3.05436 14.2641 3.03911 14.2794 3.03911C14.2946 3.03911 14.2946 3.03911 14.3099 3.03911C14.5386 3.00862 14.752 3.14584 14.8435 3.35931C14.874 3.48129 14.874 3.61851 14.8283 3.74049Z" fill="#F7611B"/>
<path d="M15.1332 18.1951C15.2764 18.1951 15.3924 18.079 15.3924 17.9359C15.3924 17.7927 15.2764 17.6767 15.1332 17.6767C14.9901 17.6767 14.874 17.7927 14.874 17.9359C14.874 18.079 14.9901 18.1951 15.1332 18.1951Z" fill="#322330"/>
<path d="M15.8041 16.3654C15.9473 16.3654 16.0633 16.2493 16.0633 16.1062C16.0633 15.963 15.9473 15.847 15.8041 15.847C15.661 15.847 15.5449 15.963 15.5449 16.1062C15.5449 16.2493 15.661 16.3654 15.8041 16.3654Z" fill="#322330"/>
<path d="M5.54241 13.8496C5.68557 13.8496 5.80162 13.7335 5.80162 13.5904C5.80162 13.4472 5.68557 13.3311 5.54241 13.3311C5.39925 13.3311 5.2832 13.4472 5.2832 13.5904C5.2832 13.7335 5.39925 13.8496 5.54241 13.8496Z" fill="#322330"/>
<path d="M6.7929 14.2307C6.93605 14.2307 7.05211 14.1147 7.05211 13.9715C7.05211 13.8284 6.93605 13.7123 6.7929 13.7123C6.64974 13.7123 6.53369 13.8284 6.53369 13.9715C6.53369 14.1147 6.64974 14.2307 6.7929 14.2307Z" fill="#322330"/>
<path d="M8.13463 14.246C8.23568 14.246 8.3176 14.1641 8.3176 14.063C8.3176 13.962 8.23568 13.88 8.13463 13.88C8.03358 13.88 7.95166 13.962 7.95166 14.063C7.95166 14.1641 8.03358 14.246 8.13463 14.246Z" fill="#322330"/>
<path d="M9.50659 14.1392C9.59922 14.1392 9.67431 14.0642 9.67431 13.9715C9.67431 13.8789 9.59922 13.8038 9.50659 13.8038C9.41396 13.8038 9.33887 13.8789 9.33887 13.9715C9.33887 14.0642 9.41396 14.1392 9.50659 14.1392Z" fill="#322330"/>
<path d="M11.0927 13.8496C11.2359 13.8496 11.3519 13.7335 11.3519 13.5904C11.3519 13.4472 11.2359 13.3311 11.0927 13.3311C10.9495 13.3311 10.8335 13.4472 10.8335 13.5904C10.8335 13.7335 10.9495 13.8496 11.0927 13.8496Z" fill="#322330"/>
<path d="M17.3899 16.0909C17.4825 16.0909 17.5576 16.0158 17.5576 15.9232C17.5576 15.8306 17.4825 15.7555 17.3899 15.7555C17.2973 15.7555 17.2222 15.8306 17.2222 15.9232C17.2222 16.0158 17.2973 16.0909 17.3899 16.0909Z" fill="#322330"/>
<path d="M13.4709 18.5153C13.5636 18.5153 13.6387 18.4402 13.6387 18.3476C13.6387 18.2549 13.5636 18.1798 13.4709 18.1798C13.3783 18.1798 13.3032 18.2549 13.3032 18.3476C13.3032 18.4402 13.3783 18.5153 13.4709 18.5153Z" fill="#322330"/>
</g>
<defs>
<clipPath id="clip0_197_2">
<rect width="24" height="24" fill="white"/>
</clipPath>
</defs>
</svg>
