<svg width="1184" height="487" viewBox="0 0 1184 487" fill="none" xmlns="http://www.w3.org/2000/svg">
<path d="M1082.4 399.485L1076.59 409.656L1070.29 399.485H1082.4ZM421.323 409.655L415.027 399.485H427.135L421.323 409.655ZM781.647 409.655L775.352 399.485H787.459L781.647 409.655Z" fill="#850037"/>
<path d="M349.159 409.174V364.618L375.796 388.833V365.586H385.482V410.142L358.845 386.411V409.174H349.159Z" fill="#312330"/>
<path d="M454.738 408.689V365.586H464.424V382.537L477.985 365.586H489.608L474.11 384.958L491.061 409.174H478.954L467.814 392.707L463.94 397.066V408.689H454.738Z" fill="#312330"/>
<path d="M529.321 365.586H539.007V393.676C539.007 404.815 529.806 410.142 521.572 410.142C513.339 410.142 504.137 404.815 504.137 393.676V365.586H513.823V391.739C513.823 396.582 517.213 399.972 521.572 399.972C525.931 399.972 529.321 397.066 529.321 391.739V365.586Z" fill="#312330"/>
<path fill-rule="evenodd" clip-rule="evenodd" d="M557.411 365.586H572.909C582.11 365.586 589.859 372.851 589.859 382.537C589.859 392.223 582.595 399.972 572.909 399.972H567.097V409.658H557.411V365.586ZM572.424 390.285C576.299 390.285 579.689 387.38 579.689 383.021C579.689 378.662 576.299 375.272 572.424 375.272H567.097V390.285H572.424Z" fill="#312330"/>
<path d="M654.756 409.174V364.618L681.393 388.833V365.586H691.079V410.142L664.443 386.411V409.174H654.756Z" fill="#312330"/>
<path fill-rule="evenodd" clip-rule="evenodd" d="M747.259 387.864C747.259 400.94 737.573 409.658 724.497 409.658H710.452V365.586H724.497C737.573 365.586 747.259 373.819 747.259 387.864ZM720.138 374.788V399.972H725.465C733.214 399.972 738.057 395.129 738.057 387.38C738.057 380.115 732.73 374.788 726.434 374.788H720.138Z" fill="#312330"/>
<path d="M785.035 366.07H777.77L759.851 409.658H770.022L781.645 382.537L792.784 409.658H802.955L785.035 366.07Z" fill="#312330"/>
<path d="M424.711 366.07H417.446L399.527 409.658H410.182L421.321 382.537L432.46 409.658H442.631L424.711 366.07Z" fill="#312330"/>
<path d="M620.371 383.021V392.707H636.837V383.021H620.371Z" fill="#312330"/>
<path d="M636.837 365.586H606.326V409.658H636.837V399.972H616.012V375.272H636.837V365.586Z" fill="#312330"/>
<path d="M925.968 387.864C925.968 400.455 935.654 410.626 948.246 410.626C955.995 410.626 962.291 407.72 966.166 402.877V383.989H946.793V392.707H956.964V398.034C955.026 399.487 952.605 400.455 948.246 400.455C941.95 400.455 935.654 394.16 935.654 387.379C935.654 380.599 941.95 374.787 948.246 374.787C952.121 374.787 955.511 376.725 957.448 379.146L965.197 373.334C961.807 368.491 955.511 365.101 948.246 365.101C935.654 365.101 925.968 375.272 925.968 387.864Z" fill="#312330"/>
<path fill-rule="evenodd" clip-rule="evenodd" d="M881.896 387.864C881.896 400.94 872.21 409.658 859.134 409.658H845.089V365.586H859.134C872.21 365.586 881.896 373.819 881.896 387.864ZM854.775 399.972H860.103C867.851 399.972 872.694 395.129 872.694 387.38C872.694 380.115 867.367 374.788 861.071 374.788H854.775V399.972Z" fill="#312330"/>
<path d="M908.533 409.658V365.586H898.847V409.658H908.533Z" fill="#312330"/>
<path d="M994.256 365.586V409.658H984.57V365.586H994.256Z" fill="#312330"/>
<path d="M1023.31 409.658V375.272H1011.21V365.586H1045.11V375.272H1033V409.658H1023.31Z" fill="#312330"/>
<path d="M1141 409.658H1110.97V366.07H1120.66V399.972H1141V409.658Z" fill="#312330"/>
<path d="M1079.98 366.07H1072.71L1054.79 409.658H1064.96L1076.59 382.537L1087.73 409.658H1097.9L1079.98 366.07Z" fill="#312330"/>
<path d="M349.159 84.6876L499.294 220.778V90.015H553.536V341.37L403.401 207.701V336.527H349.159V84.6876Z" fill="#312330"/>
<path fill-rule="evenodd" clip-rule="evenodd" d="M933.717 89.5308H1011.69C1085.31 89.5308 1141 136.024 1140.52 213.029C1140.52 287.612 1086.76 336.527 1011.21 336.527H933.233V218.356C920.157 255.648 885.287 282.285 844.121 282.285H812.641V336.527H783.098L758.398 301.173V96.311L677.035 199.468L773.412 336.527H704.64L640.712 244.509L620.371 269.693V336.043H566.129V89.0464H620.856V184.939L697.86 89.0464H764.21L763.726 89.5308H844.605C885.771 89.5308 920.157 113.746 933.717 150.069V89.5308ZM812.641 228.527H843.152C865.915 228.527 885.287 211.576 885.287 188.329C885.287 163.63 866.399 143.773 843.152 143.773H812.641V228.527ZM987.96 282.769H1016.53C1059.15 282.769 1087.24 256.132 1087.24 213.513C1087.24 172.832 1057.22 142.804 1020.89 142.804H987.96V282.769Z" fill="#312330"/>
<path d="M295.284 195.799C264.277 164.791 214.087 162.952 180.977 191.069C147.868 163.215 97.9406 164.791 66.6705 195.799C34.0864 228.383 33.8237 281.201 65.6194 314.31C65.8821 314.573 65.8821 314.573 66.1449 314.836L158.642 407.332C159.955 408.646 161.532 409.172 163.371 409.172H198.32C200.16 409.172 201.737 408.383 203.05 407.332L295.021 315.361C311.051 299.332 319.722 278.31 319.722 255.711C319.722 233.113 311.313 211.565 295.284 195.799Z" fill="#322330"/>
<path d="M304.481 273.578C303.693 275.155 302.905 276.732 301.591 278.045C299.751 280.148 297.386 281.199 294.759 281.462C292.131 281.724 289.503 280.673 287.401 279.097C287.138 278.834 287.138 278.834 286.875 278.571C288.189 279.359 289.766 279.885 291.343 279.885C293.445 279.885 295.021 278.834 296.335 277.257C299.489 273.578 299.226 268.06 295.547 264.644C293.445 262.805 290.554 261.753 287.664 262.016C284.773 262.279 282.146 263.593 280.043 265.695C274.788 271.476 275.313 280.673 281.357 285.666C284.773 288.819 289.24 290.396 293.708 290.396C294.233 290.396 294.496 290.396 295.021 290.396C295.81 290.396 296.861 290.133 297.649 290.133C295.547 294.075 293.182 297.491 290.292 300.907L257.445 267.534C254.817 261.753 255.605 254.659 259.81 249.666C261.386 247.564 264.014 246.25 266.642 245.987C269.27 245.724 271.897 246.513 274 248.352C274.262 248.615 274.262 248.615 274.525 248.878C271.372 247.038 267.167 247.564 264.802 250.454C261.649 254.133 262.175 259.914 265.853 263.067C270.583 267.009 277.416 266.221 281.357 261.753C283.722 258.863 285.036 255.184 284.51 251.505C284.248 247.826 282.408 244.41 279.518 241.783C275.576 238.629 270.846 237.053 265.591 237.578C263.489 237.841 261.386 238.367 259.547 239.155C260.335 238.367 261.386 237.578 261.912 236.79C265.328 232.848 267.693 227.856 268.218 222.863L302.116 255.972C304.744 259.126 305.795 262.805 305.795 266.746C305.532 269.111 305.007 271.476 304.481 273.578Z" fill="#FAB118"/>
<path d="M270.059 321.665L267.432 296.702L281.096 310.366L270.059 321.665Z" fill="#71AFB5"/>
<path d="M76.1285 305.636L75.8657 305.374C72.7124 302.22 70.0847 299.067 67.7197 295.651C72.7124 296.702 78.4935 297.49 85.3256 298.279C84.8001 301.695 82.9606 306.162 80.5957 310.366L76.1285 305.636Z" fill="#F095A1"/>
<path d="M77.708 226.542C76.6569 226.805 75.343 227.331 74.292 228.119L60.3649 237.842C59.5766 237.316 59.051 237.053 58.2627 236.528C60.1021 229.433 63.2554 222.601 67.4598 216.294C69.8248 219.185 73.2408 222.863 77.708 226.542Z" fill="#8B0000"/>
<path d="M257.972 211.565C259.023 213.405 259.549 215.77 259.549 217.872C259.811 222.339 258.235 226.806 255.344 230.222C253.505 232.325 251.14 233.376 248.512 233.639C245.884 233.901 243.257 232.85 241.154 231.274C240.892 231.011 240.892 231.011 240.629 230.748C241.943 231.536 243.519 232.062 245.096 232.062C247.198 232.062 248.775 231.011 250.089 229.434C253.242 225.755 252.979 220.237 249.3 216.821C244.833 212.879 237.738 213.142 233.797 217.872C231.169 220.763 230.118 224.441 230.381 228.12C230.643 231.799 232.22 235.478 235.111 237.843C238.527 240.996 242.994 242.573 247.461 242.573C247.987 242.573 248.249 242.573 248.775 242.573C251.14 242.31 253.242 241.785 255.344 240.996C254.293 241.785 253.242 242.836 252.454 243.887C249.3 247.828 247.198 252.558 246.673 257.288L212.512 222.602C208.308 216.558 208.308 207.887 213.3 202.106C214.877 200.003 217.505 198.69 220.132 198.427C222.76 198.164 225.388 198.952 227.49 200.792C227.753 201.055 227.753 201.055 228.016 201.317C224.862 199.478 220.658 200.003 218.293 202.894C216.716 204.733 216.191 207.098 216.191 209.463C216.191 211.828 217.505 213.93 219.344 215.507C221.709 217.347 224.337 218.398 227.49 217.872C230.381 217.609 233.008 216.295 234.848 213.93C237.213 211.04 238.527 207.361 238.001 203.682C237.738 200.003 235.899 196.587 233.008 193.96C224.862 187.39 213.038 188.441 206.468 196.325C203.052 200.529 200.95 205.522 200.687 210.777L190.439 200.529C202.264 191.069 216.454 185.814 230.906 184.763L257.972 211.565Z" fill="#FAB118"/>
<path d="M256.92 325.609L227.752 320.353L253.767 293.55L256.92 325.609Z" fill="#71AFB5"/>
<path d="M166.79 290.395C169.155 289.607 171.782 289.081 174.41 288.293V329.811L164.425 320.351C167.578 310.103 168.892 299.592 166.79 290.395Z" fill="#F095A1"/>
<path d="M81.6499 235.214C81.9126 235.477 82.701 236.003 82.9637 237.054L83.4893 245.988C83.4893 247.828 84.2776 249.404 85.066 250.718C79.0221 248.09 73.2411 245.463 68.7739 242.835L79.5477 235.214C80.336 234.952 81.1243 235.214 81.6499 235.214Z" fill="#8B0000"/>
<path d="M105.561 248.09C106.349 247.301 107.401 247.301 107.663 247.564C107.926 247.564 108.977 248.09 109.24 249.141L110.291 252.557C111.079 255.447 113.182 257.549 115.547 258.863C109.24 258.338 102.933 257.287 97.1523 255.71C98.729 255.184 100.043 254.396 101.094 253.082L105.561 248.09Z" fill="#8B0000"/>
<path d="M129.735 253.872L132.1 249.142C132.626 248.091 133.414 247.828 133.94 247.828C134.202 247.828 135.254 247.828 136.042 248.617L139.195 252.821C140.246 254.398 141.823 255.449 143.4 256.237C137.881 257.551 131.837 258.339 125.268 258.602C126.845 257.814 128.684 255.974 129.735 253.872Z" fill="#8B0000"/>
<path d="M159.432 239.42C159.694 238.369 160.483 237.843 160.745 237.843C161.008 237.843 162.059 237.581 162.848 238.106L170.468 244.413C167.315 246.515 162.585 249.405 156.278 252.033C156.804 250.982 157.329 249.931 157.592 248.617L159.432 239.42Z" fill="#8B0000"/>
<path d="M249.561 278.572L220.919 308.265L204.89 292.236L196.218 301.171L202.525 307.477L204.89 304.849L208.831 309.054L203.05 314.835L189.912 301.696L207.255 284.353L221.97 299.068L242.992 278.309L228.802 263.857L218.291 274.63L224.598 280.937L228.802 276.47L230.379 278.309L221.97 286.455L212.247 276.733L229.853 258.864L249.561 278.572Z" fill="#F52D53"/>
<path d="M199.109 239.417L187.81 250.717V237.578L192.803 233.111L199.109 239.417Z" fill="#F52D53"/>
<path d="M187.81 257.812L204.628 274.367L187.81 291.185V257.812Z" fill="#F52D53"/>
<path d="M187.81 342.162V312.205L202.788 327.183L188.073 342.424L187.81 342.162Z" fill="#F52D53"/>
<path d="M210.143 262.016L216.45 255.709L215.136 254.396L219.34 250.191L222.494 253.607L209.355 266.746L197.004 254.396L211.194 239.943L214.085 242.834L202.523 254.396L210.143 262.016Z" fill="#F52D53"/>
<path d="M187.81 225.491V216.294L192.54 221.024L187.81 225.491Z" fill="#F52D53"/>
<path d="M209.884 339.01L215.14 367.652L197.797 351.623L209.884 339.01Z" fill="#71AFB5"/>
<path d="M174.407 236L168.626 231.27C167.575 230.481 166.524 229.956 165.473 229.43C169.415 225.751 172.305 222.073 174.407 218.131V236Z" fill="#8B0000"/>
<path d="M148.921 247.039C148.659 247.827 148.133 248.09 147.87 248.09C147.608 248.09 146.819 248.09 146.294 247.564L143.14 243.36C142.878 242.834 142.352 242.571 142.089 242.046C145.243 241.258 147.87 240.206 150.498 239.155L148.921 247.039Z" fill="#8B0000"/>
<path d="M124.218 245.2L121.853 249.93C121.591 250.718 120.802 250.718 120.277 250.718C119.751 250.718 119.226 250.455 118.963 249.667L117.912 246.251C117.649 245.725 117.386 244.937 117.124 244.411C118.963 244.674 120.802 244.674 122.905 244.674C123.43 244.674 123.693 244.674 124.218 244.674C124.218 244.937 124.218 244.937 124.218 245.2Z" fill="#8B0000"/>
<path d="M99.2547 241.783L94.7876 246.513C94.262 247.039 93.4737 247.039 93.2109 246.776C92.9481 246.776 92.1598 246.25 92.1598 245.462L91.6343 236.528C94.5248 238.104 97.4153 239.418 100.569 240.732C100.043 240.995 99.5175 241.52 99.2547 241.783Z" fill="#8B0000"/>
<path d="M55.8977 250.982C69.5619 259.653 94 272.004 121.066 272.004C146.555 272.004 164.424 264.121 174.409 257.814V274.106C114.234 293.289 70.8758 282.778 59.8393 279.624C56.686 270.427 55.1093 260.705 55.8977 250.982Z" fill="#9E6100"/>
<path d="M98.9918 298.803C100.831 298.803 102.671 298.803 104.773 298.803C105.561 298.803 106.612 298.803 107.401 298.803C106.875 306.686 101.882 317.197 96.364 325.606L90.583 319.825C93.9991 314.306 98.2035 306.423 98.9918 298.803Z" fill="#F095A1"/>
<path d="M120.54 298.28C123.957 298.018 127.635 297.755 131.314 297.229C133.154 310.894 121.854 330.864 113.708 342.952L106.088 335.332C111.869 326.66 120.278 311.945 120.54 298.28Z" fill="#F095A1"/>
<path d="M144.453 295.389C147.606 294.864 150.76 294.338 153.913 293.55C158.38 312.995 140.774 342.952 129.475 358.718L123.431 352.674C131.314 341.112 147.344 315.886 144.453 295.389Z" fill="#F095A1"/>
<path d="M159.167 333.756L168.627 342.427L142.087 371.332L138.671 367.916C143.926 361.61 152.598 348.734 159.167 333.756Z" fill="#F095A1"/>
<path d="M178.349 351.887L183.079 356.092L156.276 385.522L151.809 381.055L178.349 351.887Z" fill="#F7611B"/>
<path d="M222.494 332.966L253.238 338.485L228.012 363.711L222.494 332.966Z" fill="#71AFB5"/>
<path d="M305.008 239.945L251.665 186.076C264.278 188.966 276.103 195.273 285.825 204.996C295.548 214.981 302.117 227.069 305.008 239.945Z" fill="#C72747"/>
<path d="M117.648 185.023C124.743 186.074 130.787 191.592 132.364 199.213C132.889 202.103 132.364 204.731 130.787 207.359C129.21 209.724 126.845 211.3 123.955 211.826C123.167 212.089 122.378 212.089 121.853 211.826H122.115C124.218 211.3 125.794 210.249 126.845 208.673C127.897 207.096 128.422 204.994 127.897 202.892C127.371 200.527 126.057 198.424 123.955 197.111C121.853 195.797 119.488 195.271 117.123 195.797C114.232 196.322 111.605 198.162 110.028 200.527C108.451 203.154 107.663 206.045 108.451 208.935C109.24 212.877 111.342 216.03 114.758 218.133C117.123 219.709 120.013 220.498 122.904 220.498C123.955 220.498 124.743 220.498 125.794 220.235C131.05 219.184 135.254 216.293 138.145 211.826C141.035 207.359 142.086 202.366 141.035 197.111C139.984 192.381 137.882 187.914 134.729 184.497C146.291 185.811 157.853 190.016 167.838 197.111C166.787 205.257 161.006 226.016 129.999 230.483C102.67 234.425 82.9621 214.191 75.8672 205.257C76.13 204.994 76.13 204.994 76.3927 204.731C87.9548 193.695 102.407 186.862 117.648 185.023Z" fill="#F7611B"/>
<path d="M165.735 394.98L192.801 365.287L197.006 369.228L172.83 395.768H166.524L165.735 394.98Z" fill="#F7611B"/>
<path d="M195.958 395.769H190.965L206.732 378.426L210.148 381.58L195.958 395.769Z" fill="#F7611B"/>
<path d="M242.468 89.1123C238.79 79.6525 229.33 73.8714 219.082 75.1853C218.556 75.1853 218.03 75.4481 217.505 75.4481H217.242C217.242 75.4481 215.928 75.7108 215.403 75.9736C191.227 82.543 173.096 102.251 167.578 126.164C156.541 117.492 141.826 113.288 126.848 116.178C126.322 116.178 125.534 116.441 125.534 116.441H125.271C124.746 116.441 124.483 116.704 124.22 116.704C116.337 119.331 111.344 126.952 112.132 135.098C112.658 139.828 114.76 144.032 118.439 147.185C122.118 150.339 126.585 151.653 131.315 151.39C131.578 151.39 132.366 151.39 132.629 151.39C149.446 151.39 165.213 159.799 174.41 173.988C174.41 174.251 174.673 174.251 174.935 174.514C175.198 174.777 175.198 175.302 175.461 175.565C176.775 177.667 178.877 178.718 181.242 178.718C181.768 178.718 182.03 178.718 182.556 178.456C185.446 177.93 187.549 175.565 187.811 172.937C188.337 168.996 189.125 165.054 190.439 161.113C196.483 142.456 209.884 126.952 227.228 118.28C227.753 118.018 228.804 117.492 229.067 117.492C234.585 115.39 238.79 111.448 241.417 105.93C244.308 100.674 244.571 94.6306 242.468 89.1123Z" fill="#322330"/>
<path d="M133.151 137.726C132.363 137.726 130.786 137.726 130.523 137.726C129.209 137.726 128.158 137.463 127.37 136.675C126.582 135.886 125.793 134.835 125.793 133.784C125.53 131.682 126.844 129.842 128.684 129.317C128.684 129.317 128.684 129.317 128.947 129.317C129.209 129.317 129.472 129.317 129.472 129.317C146.552 126.164 163.107 135.098 170.202 150.076C159.691 142.193 146.552 137.726 133.151 137.726Z" fill="#FAB118"/>
<path d="M229.855 100.41C228.804 102.513 227.227 104.089 225.125 104.878C224.862 104.878 223.023 105.666 221.972 106.191C204.891 114.337 191.227 128.265 182.818 145.082C181.767 142.98 180.979 140.878 179.665 139.038C180.453 115.651 196.483 94.8922 219.344 88.5856C219.607 88.5856 220.132 88.3228 220.395 88.3228C220.658 88.3228 220.658 88.3228 220.921 88.3228C224.862 87.7973 228.541 90.1622 230.118 93.8411C230.643 95.9433 230.643 98.3082 229.855 100.41Z" fill="#F7611B"/>
<path d="M235.112 349.522C237.579 349.522 239.579 347.522 239.579 345.055C239.579 342.588 237.579 340.588 235.112 340.588C232.645 340.588 230.645 342.588 230.645 345.055C230.645 347.522 232.645 349.522 235.112 349.522Z" fill="#322330"/>
<path d="M246.671 317.989C249.138 317.989 251.138 315.989 251.138 313.522C251.138 311.055 249.138 309.055 246.671 309.055C244.204 309.055 242.204 311.055 242.204 313.522C242.204 315.989 244.204 317.989 246.671 317.989Z" fill="#322330"/>
<path d="M69.826 274.632C72.2932 274.632 74.2932 272.632 74.2932 270.165C74.2932 267.698 72.2932 265.698 69.826 265.698C67.3589 265.698 65.3589 267.698 65.3589 270.165C65.3589 272.632 67.3589 274.632 69.826 274.632Z" fill="#322330"/>
<path d="M91.37 281.202C93.8372 281.202 95.8372 279.202 95.8372 276.735C95.8372 274.268 93.8372 272.268 91.37 272.268C88.9029 272.268 86.9028 274.268 86.9028 276.735C86.9028 279.202 88.9029 281.202 91.37 281.202Z" fill="#322330"/>
<path d="M114.495 281.463C116.236 281.463 117.648 280.051 117.648 278.31C117.648 276.568 116.236 275.156 114.495 275.156C112.753 275.156 111.341 276.568 111.341 278.31C111.341 280.051 112.753 281.463 114.495 281.463Z" fill="#322330"/>
<path d="M138.146 279.623C139.742 279.623 141.036 278.328 141.036 276.732C141.036 275.136 139.742 273.841 138.146 273.841C136.549 273.841 135.255 275.136 135.255 276.732C135.255 278.328 136.549 279.623 138.146 279.623Z" fill="#322330"/>
<path d="M165.477 274.632C167.944 274.632 169.944 272.632 169.944 270.165C169.944 267.698 167.944 265.698 165.477 265.698C163.01 265.698 161.01 267.698 161.01 270.165C161.01 272.632 163.01 274.632 165.477 274.632Z" fill="#322330"/>
<path d="M273.999 313.259C275.595 313.259 276.889 311.965 276.889 310.369C276.889 308.772 275.595 307.478 273.999 307.478C272.403 307.478 271.108 308.772 271.108 310.369C271.108 311.965 272.403 313.259 273.999 313.259Z" fill="#322330"/>
<path d="M206.467 355.04C208.063 355.04 209.357 353.746 209.357 352.149C209.357 350.553 208.063 349.259 206.467 349.259C204.87 349.259 203.576 350.553 203.576 352.149C203.576 353.746 204.87 355.04 206.467 355.04Z" fill="#322330"/>
</svg>
