<svg width="1184" height="487" viewBox="0 0 1184 487" fill="none" xmlns="http://www.w3.org/2000/svg">
<path fill-rule="evenodd" clip-rule="evenodd" d="M421.321 410.198L427.133 400.028H415.025L421.321 410.198ZM781.645 410.198L787.457 400.028H775.349L781.645 410.198ZM1082.4 400.028L1076.59 410.198L1070.29 400.028H1082.4Z" fill="#FAB118"/>
<path d="M349.159 409.715V365.159L375.796 389.374V366.127H385.482V410.684L358.845 386.952V409.715H349.159Z" fill="#E8E0CE"/>
<path d="M454.738 409.23V366.127H464.424V383.078L477.985 366.127H489.608L474.11 385.499L491.061 409.715H478.954L467.814 393.248L463.94 397.607V409.23H454.738Z" fill="#E8E0CE"/>
<path d="M529.321 366.127H539.007V394.217C539.007 405.356 529.806 410.683 521.572 410.683C513.339 410.683 504.137 405.356 504.137 394.217V366.127H513.823V392.28C513.823 397.123 517.213 400.513 521.572 400.513C525.931 400.513 529.321 397.607 529.321 392.28V366.127Z" fill="#E8E0CE"/>
<path fill-rule="evenodd" clip-rule="evenodd" d="M557.411 366.127H572.908C582.11 366.127 589.859 373.392 589.859 383.078C589.859 392.764 582.595 400.513 572.908 400.513H567.097V410.199H557.411V366.127ZM572.424 390.827C576.299 390.827 579.689 387.921 579.689 383.562C579.689 379.203 576.299 375.813 572.424 375.813H567.097V390.827H572.424Z" fill="#E8E0CE"/>
<path d="M654.756 409.715V365.159L681.393 389.374V366.127H691.079V410.684L664.442 386.952V409.715H654.756Z" fill="#E8E0CE"/>
<path fill-rule="evenodd" clip-rule="evenodd" d="M747.259 388.405C747.259 401.481 737.573 410.199 724.497 410.199H710.452V366.127H724.497C737.573 366.127 747.259 374.36 747.259 388.405ZM720.138 375.329V400.513H725.465C733.214 400.513 738.057 395.67 738.057 387.921C738.057 380.656 732.73 375.329 726.434 375.329H720.138Z" fill="#E8E0CE"/>
<path d="M785.035 366.611H777.77L759.851 410.199H770.022L781.645 383.078L792.784 410.199H802.955L785.035 366.611Z" fill="#E8E0CE"/>
<path d="M424.711 366.611H417.446L399.527 410.199H410.182L421.321 383.078L432.46 410.199H442.631L424.711 366.611Z" fill="#E8E0CE"/>
<path d="M620.371 383.562V393.248H636.837V383.562H620.371Z" fill="#E8E0CE"/>
<path d="M636.837 366.127H606.326V410.199H636.837V400.513H616.012V375.813H636.837V366.127Z" fill="#E8E0CE"/>
<path d="M925.968 388.405C925.968 400.997 935.654 411.167 948.246 411.167C955.995 411.167 962.291 408.261 966.166 403.418V384.53H946.793V393.248H956.964V398.575C955.026 400.028 952.605 400.997 948.246 400.997C941.95 400.997 935.654 394.701 935.654 387.92C935.654 381.14 941.95 375.328 948.246 375.328C952.121 375.328 955.51 377.266 957.448 379.687L965.197 373.876C961.807 369.032 955.51 365.642 948.246 365.642C935.654 365.642 925.968 375.813 925.968 388.405Z" fill="#E8E0CE"/>
<path fill-rule="evenodd" clip-rule="evenodd" d="M881.896 388.405C881.896 401.481 872.21 410.199 859.134 410.199H845.089V366.127H859.134C872.21 366.127 881.896 374.36 881.896 388.405ZM854.775 400.513H860.102C867.851 400.513 872.694 395.67 872.694 387.921C872.694 380.656 867.367 375.329 861.071 375.329H854.775V400.513Z" fill="#E8E0CE"/>
<path d="M908.533 410.199V366.127H898.847V410.199H908.533Z" fill="#E8E0CE"/>
<path d="M994.256 366.127V410.199H984.569V366.127H994.256Z" fill="#E8E0CE"/>
<path d="M1023.31 410.199V375.813H1011.21V366.127H1045.11V375.813H1033V410.199H1023.31Z" fill="#E8E0CE"/>
<path d="M1141 410.199H1110.97V366.611H1120.66V400.513H1141V410.199Z" fill="#E8E0CE"/>
<path d="M1079.98 366.611H1072.71L1054.79 410.199H1064.96L1076.59 383.078L1087.73 410.199H1097.9L1079.98 366.611Z" fill="#E8E0CE"/>
<path d="M349.159 85.2301L499.294 221.32V90.5575H553.536V341.912L403.401 208.244V337.069H349.159V85.2301Z" fill="#E8E0CE"/>
<path fill-rule="evenodd" clip-rule="evenodd" d="M933.717 90.0733H1011.69C1085.3 90.0733 1141 136.567 1140.52 213.571C1140.52 288.155 1086.76 337.07 1011.21 337.07H933.233V218.899C920.156 256.19 885.287 282.827 844.121 282.827H812.641V337.07H783.098L758.398 301.715V96.8536L677.035 200.011L773.412 337.07H704.64L640.712 245.051L620.371 270.235V336.585H566.129V89.589H620.855V185.482L697.86 89.589H764.21L763.726 90.0733H844.605C885.771 90.0733 920.156 114.289 933.717 150.612V90.0733ZM812.641 229.069H843.152C865.914 229.069 885.287 212.118 885.287 188.872C885.287 164.172 866.399 144.316 843.152 144.316H812.641V229.069ZM987.959 283.311H1016.53C1059.15 283.311 1087.24 256.675 1087.24 214.056C1087.24 173.374 1057.22 143.347 1020.89 143.347H987.959V283.311Z" fill="#E8E0CE"/>
<path d="M219.123 81.9806C228.935 80.7227 237.992 86.2577 241.515 95.315C243.528 100.598 243.276 106.385 240.509 111.417C237.992 116.7 233.967 120.474 228.684 122.487C228.432 122.487 227.426 122.99 226.923 123.242C210.318 131.544 197.486 146.388 191.7 164.251C190.442 168.025 189.687 171.799 189.184 175.573C188.932 178.089 186.919 180.353 184.152 180.856C183.649 181.108 183.397 181.108 182.894 181.108C180.63 181.108 178.617 180.101 177.359 178.089C177.233 177.963 177.17 177.774 177.107 177.586C177.045 177.397 176.982 177.208 176.856 177.082C176.604 176.831 176.353 176.831 176.353 176.579C167.547 162.993 152.451 154.942 136.35 154.942H135.092C130.563 155.194 126.286 153.936 122.764 150.917C119.241 147.898 117.229 143.872 116.725 139.344C115.971 131.544 120.751 124.248 128.299 121.732C128.403 121.732 128.507 121.689 128.629 121.638C128.802 121.567 129.01 121.481 129.305 121.481H129.557C129.557 121.481 130.311 121.229 130.815 121.229C145.155 118.461 159.244 122.487 169.811 130.789C175.095 107.895 192.454 89.0252 215.601 82.7354C216.104 82.4838 217.362 82.2322 217.362 82.2322H217.614C217.865 82.2322 218.117 82.1693 218.368 82.1064C218.62 82.0435 218.872 81.9806 219.123 81.9806Z" fill="#E8E0CE"/>
<path d="M182.642 192.932C214.343 166.012 262.396 167.773 292.084 197.461C307.431 212.557 315.482 233.187 315.482 254.824C315.482 276.461 307.18 296.588 291.833 311.935L203.776 399.992C202.518 400.999 201.008 401.754 199.247 401.754H165.785C164.024 401.754 162.515 401.25 161.257 399.992L72.1934 310.929C41.7507 279.228 42.0023 228.658 73.1998 197.461C103.139 167.773 150.941 166.264 182.642 192.932Z" fill="#E8E0CE"/>
<path fill-rule="evenodd" clip-rule="evenodd" d="M248.588 92.5925L248.598 92.6171C251.328 99.7856 251.058 107.822 247.257 114.872C243.929 121.743 238.495 126.86 231.382 129.569L230.691 129.833C230.572 129.891 230.444 129.954 230.313 130.02C215.523 137.415 204.069 150.66 198.91 166.587L198.9 166.618L198.89 166.648C198.012 169.281 197.404 171.971 196.96 174.765C229.844 159.25 270.504 165.181 297.422 192.081C314.307 208.701 323.061 231.317 323.061 254.824C323.061 278.466 313.964 300.523 297.192 317.295L208.838 405.648L208.51 405.911C206.428 407.577 203.293 409.333 199.247 409.333H165.785C162.401 409.333 158.828 408.283 155.897 405.352L66.7798 316.234L66.7267 316.179C33.4502 281.527 33.7009 226.241 67.8405 192.102L67.8518 192.091L67.8631 192.079C93.5352 166.623 131.183 160.112 162.958 172.54C155.711 166.144 146.268 162.521 136.35 162.521H135.285C129.088 162.815 122.925 161.037 117.831 156.671C112.769 152.332 109.896 146.51 109.193 140.181L109.187 140.127L109.181 140.073C108.081 128.697 115.06 118.156 125.902 114.542L127.069 114.153H127.193C127.538 114.071 127.932 113.997 128.366 113.951C128.684 113.877 129.204 113.767 129.827 113.702C142.497 111.364 154.949 113.592 165.515 119.056C173.582 98.2976 190.918 81.7485 213.162 75.5458C213.902 75.2679 214.56 75.1044 214.799 75.0449L214.832 75.0367C215.112 74.9667 215.361 74.9102 215.538 74.8715C215.628 74.8517 215.704 74.8357 215.761 74.8238L215.833 74.8089L215.858 74.8038L215.868 74.8019L215.872 74.8011L215.874 74.8007C215.874 74.8006 215.875 74.8003 217.362 82.2322C217.362 82.2322 216.104 82.4838 215.601 82.7354C195.119 88.301 179.169 103.716 172.107 123.054C171.188 125.571 170.419 128.153 169.811 130.789C167.708 129.137 165.466 127.655 163.11 126.361C153.627 121.154 142.301 119.012 130.815 121.229C130.311 121.229 129.557 121.481 129.557 121.481H129.305C129.01 121.481 128.802 121.567 128.629 121.638C128.507 121.689 128.403 121.732 128.299 121.732C120.751 124.248 115.971 131.544 116.725 139.344C117.229 143.872 119.241 147.898 122.764 150.917C126.286 153.936 130.563 155.194 135.092 154.942H136.35C152.451 154.942 167.547 162.993 176.353 176.579C176.353 176.735 176.449 176.794 176.581 176.876C176.663 176.927 176.76 176.986 176.856 177.082C176.982 177.208 177.044 177.397 177.107 177.586C177.17 177.774 177.233 177.963 177.359 178.089C178.617 180.101 180.63 181.108 182.894 181.108C183.397 181.108 183.649 181.108 184.152 180.856C186.919 180.353 188.932 178.089 189.184 175.573C189.687 171.799 190.442 168.025 191.7 164.251C197.486 146.388 210.317 131.544 226.923 123.242C227.426 122.99 228.432 122.487 228.684 122.487C233.967 120.474 237.992 116.7 240.509 111.417C243.276 106.385 243.527 100.598 241.515 95.315C237.992 86.2577 228.935 80.7227 219.123 81.9806C218.872 81.9806 218.62 82.0435 218.368 82.1064C218.117 82.1693 217.865 82.2322 217.613 82.2322H217.362L215.875 74.8003L216.611 74.6531H216.94C217.287 74.5762 217.823 74.4759 218.439 74.4285C231.652 72.8616 243.847 80.4017 248.579 92.5678L248.588 92.5925ZM182.642 192.932C150.941 166.264 103.139 167.773 73.1997 197.461C42.0022 228.658 41.7507 279.228 72.1933 310.929L161.257 399.992C162.515 401.25 164.024 401.754 165.785 401.754H199.247C201.008 401.754 202.518 400.999 203.776 399.992L291.833 311.935C307.18 296.588 315.482 276.461 315.482 254.824C315.482 233.187 307.431 212.557 292.084 197.461C262.396 167.773 214.342 166.012 182.642 192.932ZM125.738 114.632C125.684 114.654 125.673 114.659 125.728 114.637L125.729 114.636C125.732 114.635 125.735 114.634 125.738 114.632Z" fill="#E8E0CE"/>
<path d="M292.084 197.461C262.397 167.773 214.343 166.012 182.642 192.933C150.941 166.264 103.139 167.773 73.1997 197.461C42.0023 228.659 41.7507 279.229 72.1933 310.929C72.4449 311.181 72.4449 311.181 72.6965 311.432L161.257 399.992C162.515 401.25 164.024 401.754 165.785 401.754H199.247C201.008 401.754 202.518 400.999 203.776 399.992L291.833 311.935C307.18 296.588 315.482 276.461 315.482 254.824C315.482 233.187 307.432 212.557 292.084 197.461Z" fill="#4A001F"/>
<path d="M300.89 271.932C300.135 273.442 299.38 274.951 298.122 276.209C296.361 278.222 294.097 279.228 291.581 279.48C289.065 279.732 286.549 278.725 284.536 277.216C284.285 276.964 284.285 276.964 284.033 276.712C285.291 277.467 286.801 277.97 288.31 277.97C290.323 277.97 291.832 276.964 293.09 275.454C296.109 271.932 295.858 266.649 292.336 263.378C290.323 261.617 287.555 260.611 284.788 260.862C282.02 261.114 279.504 262.372 277.492 264.384C272.46 269.919 272.963 278.725 278.75 283.505C282.02 286.525 286.297 288.034 290.574 288.034C291.078 288.034 291.329 288.034 291.832 288.034C292.587 288.034 293.594 287.782 294.348 287.782C292.336 291.556 290.071 294.827 287.304 298.098L255.855 266.146C253.339 260.611 254.094 253.818 258.119 249.037C259.629 247.025 262.145 245.767 264.661 245.515C267.176 245.263 269.692 246.018 271.705 247.779C271.957 248.031 271.957 248.031 272.208 248.283C269.189 246.521 265.164 247.025 262.899 249.792C259.88 253.314 260.383 258.849 263.906 261.869C268.434 265.642 274.976 264.888 278.75 260.611C281.014 257.843 282.272 254.321 281.769 250.798C281.517 247.276 279.756 244.006 276.988 241.49C273.215 238.47 268.686 236.961 263.654 237.464C261.641 237.716 259.629 238.219 257.868 238.974C258.622 238.219 259.629 237.464 260.132 236.709C263.403 232.935 265.667 228.155 266.17 223.375L298.625 255.076C301.141 258.095 302.148 261.617 302.148 265.391C301.896 267.655 301.393 269.919 300.89 271.932Z" fill="#FAB118"/>
<path d="M267.931 317.973L265.416 294.072L278.498 307.155L267.931 317.973Z" fill="#71AFB5"/>
<path d="M82.2565 302.627L82.0049 302.375C78.9858 299.356 76.4699 296.337 74.2056 293.066C78.9858 294.072 84.5208 294.827 91.0622 295.582C90.559 298.853 88.7979 303.13 86.5335 307.155L82.2565 302.627Z" fill="#F095A1"/>
<path d="M83.7667 226.897C82.7603 227.149 81.5024 227.652 80.496 228.407L67.1617 237.716C66.4069 237.213 65.9037 236.961 65.1489 236.458C66.9101 229.665 69.9292 223.124 73.9546 217.085C76.219 219.853 79.4897 223.375 83.7667 226.897Z" fill="#8B0000"/>
<path d="M256.358 212.557C257.365 214.318 257.868 216.582 257.868 218.595C258.119 222.872 256.61 227.149 253.842 230.42C252.081 232.432 249.817 233.439 247.301 233.69C244.785 233.942 242.269 232.936 240.256 231.426C240.005 231.174 240.005 231.174 239.753 230.923C241.011 231.678 242.521 232.181 244.03 232.181C246.043 232.181 247.553 231.174 248.811 229.665C251.83 226.143 251.578 220.859 248.056 217.588C243.779 213.815 236.986 214.066 233.212 218.595C230.696 221.362 229.69 224.885 229.941 228.407C230.193 231.929 231.702 235.451 234.47 237.716C237.74 240.735 242.018 242.244 246.295 242.244C246.798 242.244 247.049 242.244 247.553 242.244C249.817 241.993 251.83 241.49 253.842 240.735C252.836 241.49 251.83 242.496 251.075 243.502C248.056 247.276 246.043 251.805 245.54 256.334L212.833 223.123C208.807 217.337 208.807 209.034 213.588 203.499C215.097 201.487 217.613 200.229 220.129 199.977C222.645 199.725 225.161 200.48 227.174 202.241C227.425 202.493 227.425 202.493 227.677 202.745C224.658 200.983 220.632 201.487 218.368 204.254C216.858 206.015 216.355 208.28 216.355 210.544C216.355 212.808 217.613 214.821 219.374 216.331C221.639 218.092 224.155 219.098 227.174 218.595C229.941 218.343 232.457 217.085 234.218 214.821C236.483 212.053 237.741 208.531 237.237 205.009C236.986 201.487 235.225 198.216 232.457 195.7C224.658 189.41 213.336 190.417 207.046 197.964C203.776 201.99 201.763 206.77 201.511 211.802L191.699 201.99C203.021 192.932 216.607 187.901 230.444 186.894L256.358 212.557Z" fill="#FAB118"/>
<path d="M255.352 321.747L227.425 316.716L252.333 291.053L255.352 321.747Z" fill="#71AFB5"/>
<path d="M169.056 288.034C171.321 287.279 173.837 286.776 176.352 286.021V325.773L166.792 316.716C169.811 306.904 171.069 296.84 169.056 288.034Z" fill="#F095A1"/>
<path d="M87.5399 235.2C87.7915 235.451 88.5463 235.954 88.7979 236.961L89.3011 245.515C89.3011 247.276 90.0558 248.786 90.8106 250.044C85.024 247.528 79.489 245.012 75.2119 242.496L85.5272 235.2C86.282 234.948 87.0367 235.2 87.5399 235.2Z" fill="#8B0000"/>
<path d="M110.435 247.528C111.189 246.773 112.196 246.773 112.447 247.025C112.699 247.025 113.705 247.528 113.957 248.534L114.963 251.805C115.718 254.572 117.731 256.585 119.995 257.843C113.957 257.34 107.919 256.334 102.384 254.824C103.893 254.321 105.151 253.566 106.158 252.308L110.435 247.528Z" fill="#8B0000"/>
<path d="M133.582 253.063L135.847 248.534C136.35 247.528 137.105 247.276 137.608 247.276C137.859 247.276 138.866 247.276 139.62 248.031L142.64 252.056C143.646 253.566 145.155 254.572 146.665 255.327C141.382 256.585 135.595 257.34 129.305 257.591C130.815 256.837 132.576 255.076 133.582 253.063Z" fill="#8B0000"/>
<path d="M162.011 239.226C162.262 238.219 163.017 237.716 163.269 237.716C163.52 237.716 164.527 237.465 165.281 237.968L172.578 244.006C169.559 246.019 165.03 248.786 158.992 251.302C159.495 250.296 159.998 249.289 160.25 248.031L162.011 239.226Z" fill="#8B0000"/>
<path d="M248.307 276.713L220.883 305.143L205.536 289.795L197.233 298.35L203.272 304.388L205.536 301.872L209.31 305.897L203.775 311.432L191.195 298.853L207.8 282.248L221.889 296.337L242.017 276.461L228.431 262.624L218.367 272.939L224.405 278.977L228.431 274.7L229.94 276.461L221.889 284.26L212.581 274.952L229.437 257.843L248.307 276.713Z" fill="#F52D53"/>
<path d="M200.002 239.225L189.183 250.044V237.464L193.963 233.187L200.002 239.225Z" fill="#F52D53"/>
<path d="M189.183 256.837L205.285 272.687L189.183 288.789V256.837Z" fill="#F52D53"/>
<path d="M189.183 337.598V308.916L203.524 323.257L189.435 337.849L189.183 337.598Z" fill="#F52D53"/>
<path d="M210.568 260.862L216.607 254.824L215.349 253.566L219.374 249.541L222.393 252.811L209.814 265.391L197.989 253.566L211.575 239.729L214.342 242.496L203.272 253.566L210.568 260.862Z" fill="#F52D53"/>
<path d="M189.183 225.891V217.085L193.712 221.614L189.183 225.891Z" fill="#F52D53"/>
<path d="M210.316 334.579L215.348 362.002L198.743 346.655L210.316 334.579Z" fill="#71AFB5"/>
<path d="M176.351 235.955L170.816 231.426C169.81 230.671 168.804 230.168 167.797 229.665C171.571 226.143 174.339 222.62 176.351 218.847V235.955Z" fill="#8B0000"/>
<path d="M151.948 246.522C151.697 247.276 151.193 247.528 150.942 247.528C150.69 247.528 149.935 247.528 149.432 247.025L146.413 242.999C146.162 242.496 145.658 242.245 145.407 241.741C148.426 240.987 150.942 239.98 153.458 238.974L151.948 246.522Z" fill="#8B0000"/>
<path d="M128.298 244.761L126.034 249.289C125.782 250.044 125.027 250.044 124.524 250.044C124.021 250.044 123.518 249.792 123.266 249.038L122.26 245.767C122.008 245.264 121.756 244.509 121.505 244.006C123.266 244.257 125.027 244.257 127.04 244.257C127.543 244.257 127.795 244.257 128.298 244.257C128.298 244.509 128.298 244.509 128.298 244.761Z" fill="#8B0000"/>
<path d="M104.397 241.49L100.12 246.019C99.6165 246.522 98.8617 246.522 98.6101 246.27C98.3585 246.27 97.6038 245.767 97.6038 245.012L97.1006 236.458C99.8681 237.968 102.636 239.226 105.655 240.484C105.152 240.735 104.648 241.238 104.397 241.49Z" fill="#8B0000"/>
<path d="M62.8842 250.295C75.967 258.598 99.365 270.423 125.279 270.423C149.683 270.423 166.792 262.875 176.352 256.837V272.435C118.738 290.802 77.225 280.738 66.6581 277.719C63.639 268.913 62.1295 259.604 62.8842 250.295Z" fill="#9E6100"/>
<path d="M104.145 296.085C105.906 296.085 107.667 296.085 109.68 296.085C110.434 296.085 111.441 296.085 112.196 296.085C111.692 303.633 106.912 313.696 101.629 321.747L96.0938 316.212C99.3644 310.929 103.39 303.381 104.145 296.085Z" fill="#F095A1"/>
<path d="M124.776 295.582C128.046 295.33 131.569 295.079 135.091 294.576C136.852 307.658 126.033 326.779 118.234 338.352L110.938 331.056C116.473 322.754 124.524 308.665 124.776 295.582Z" fill="#F095A1"/>
<path d="M147.67 292.814C150.689 292.311 153.708 291.808 156.728 291.053C161.005 309.671 144.148 338.352 133.33 353.448L127.543 347.661C135.091 336.591 150.438 312.439 147.67 292.814Z" fill="#F095A1"/>
<path d="M161.759 329.547L170.816 337.849L145.405 365.524L142.135 362.254C147.167 356.216 155.469 343.888 161.759 329.547Z" fill="#F095A1"/>
<path d="M180.126 346.906L184.654 350.932L158.992 379.11L154.715 374.833L180.126 346.906Z" fill="#F7611B"/>
<path d="M222.394 328.792L251.83 334.076L227.677 358.228L222.394 328.792Z" fill="#71AFB5"/>
<path d="M301.393 239.729L250.32 188.152C262.397 190.92 273.718 196.958 283.027 206.267C292.336 215.827 298.626 227.401 301.393 239.729Z" fill="#C72747"/>
<path d="M122.009 187.146C128.802 188.152 134.589 193.436 136.098 200.732C136.601 203.499 136.098 206.015 134.589 208.531C133.079 210.795 130.815 212.305 128.047 212.808C127.292 213.06 126.538 213.06 126.034 212.808H126.286C128.299 212.305 129.808 211.299 130.815 209.789C131.821 208.28 132.324 206.267 131.821 204.254C131.318 201.99 130.06 199.977 128.047 198.719C126.034 197.461 123.77 196.958 121.506 197.461C118.738 197.964 116.222 199.725 114.713 201.99C113.203 204.506 112.448 207.273 113.203 210.041C113.958 213.815 115.971 216.834 119.241 218.846C121.506 220.356 124.273 221.111 127.041 221.111C128.047 221.111 128.802 221.111 129.808 220.859C134.84 219.853 138.866 217.085 141.633 212.808C144.401 208.531 145.407 203.751 144.401 198.719C143.394 194.19 141.381 189.913 138.362 186.643C149.432 187.901 160.502 191.926 170.063 198.719C169.057 206.518 163.522 226.394 133.834 230.671C107.668 234.445 88.7988 215.073 82.0059 206.518C82.2575 206.267 82.2574 206.267 82.509 206.015C93.5791 195.448 107.417 188.907 122.009 187.146Z" fill="#F7611B"/>
<path d="M168.049 388.168L193.963 359.738L197.989 363.512L174.842 388.923H168.804L168.049 388.168Z" fill="#F7611B"/>
<path d="M196.983 388.923H192.203L207.299 372.318L210.569 375.337L196.983 388.923Z" fill="#F7611B"/>
<path d="M241.515 95.315C237.992 86.2577 228.935 80.7227 219.123 81.9806C218.62 81.9806 218.117 82.2322 217.613 82.2322H217.362C217.362 82.2322 216.104 82.4838 215.601 82.7354C192.454 89.0252 175.094 107.895 169.811 130.789C159.244 122.487 145.155 118.461 130.814 121.229C130.311 121.229 129.556 121.481 129.556 121.481H129.305C128.801 121.481 128.55 121.732 128.298 121.732C120.751 124.248 115.97 131.544 116.725 139.344C117.228 143.872 119.241 147.898 122.763 150.917C126.286 153.936 130.563 155.194 135.091 154.942C135.343 154.942 136.098 154.942 136.349 154.942C152.451 154.942 167.547 162.993 176.352 176.579C176.352 176.831 176.604 176.831 176.855 177.082C177.107 177.334 177.107 177.837 177.359 178.089C178.617 180.101 180.629 181.108 182.894 181.108C183.397 181.108 183.648 181.108 184.152 180.856C186.919 180.353 188.932 178.089 189.183 175.573C189.687 171.799 190.441 168.025 191.699 164.251C197.486 146.388 210.317 131.544 226.922 123.242C227.425 122.99 228.432 122.487 228.683 122.487C233.967 120.474 237.992 116.7 240.508 111.417C243.276 106.385 243.527 100.598 241.515 95.315Z" fill="#4A001F"/>
<path d="M136.852 141.86C136.098 141.86 134.588 141.86 134.337 141.86C133.079 141.86 132.072 141.608 131.317 140.853C130.563 140.098 129.808 139.092 129.808 138.086C129.556 136.073 130.814 134.312 132.575 133.809C132.575 133.809 132.575 133.809 132.827 133.809C133.079 133.809 133.33 133.809 133.33 133.809C149.684 130.79 165.534 139.344 172.327 153.684C162.263 146.137 149.684 141.86 136.852 141.86Z" fill="#FAB118"/>
<path d="M229.438 106.133C228.431 108.146 226.922 109.656 224.909 110.41C224.658 110.41 222.896 111.165 221.89 111.668C205.537 119.468 192.454 132.802 184.403 148.904C183.397 146.891 182.642 144.878 181.384 143.117C182.139 120.726 197.486 100.85 219.374 94.8117C219.626 94.8117 220.129 94.5602 220.381 94.5602C220.632 94.5602 220.632 94.5602 220.884 94.5602C224.658 94.057 228.18 96.3213 229.689 99.8436C230.193 101.856 230.193 104.121 229.438 106.133Z" fill="#F7611B"/>
<path d="M234.469 344.642C236.832 344.642 238.746 342.728 238.746 340.365C238.746 338.003 236.832 336.088 234.469 336.088C232.107 336.088 230.192 338.003 230.192 340.365C230.192 342.728 232.107 344.642 234.469 344.642Z" fill="#4A001F"/>
<path d="M245.541 314.451C247.903 314.451 249.818 312.536 249.818 310.174C249.818 307.812 247.903 305.897 245.541 305.897C243.179 305.897 241.264 307.812 241.264 310.174C241.264 312.536 243.179 314.451 245.541 314.451Z" fill="#4A001F"/>
<path d="M76.2189 272.939C78.5811 272.939 80.496 271.024 80.496 268.662C80.496 266.3 78.5811 264.385 76.2189 264.385C73.8568 264.385 71.9419 266.3 71.9419 268.662C71.9419 271.024 73.8568 272.939 76.2189 272.939Z" fill="#4A001F"/>
<path d="M96.8488 279.229C99.211 279.229 101.126 277.314 101.126 274.952C101.126 272.589 99.211 270.675 96.8488 270.675C94.4867 270.675 92.5718 272.589 92.5718 274.952C92.5718 277.314 94.4867 279.229 96.8488 279.229Z" fill="#4A001F"/>
<path d="M118.989 279.48C120.656 279.48 122.008 278.129 122.008 276.461C122.008 274.794 120.656 273.442 118.989 273.442C117.321 273.442 115.97 274.794 115.97 276.461C115.97 278.129 117.321 279.48 118.989 279.48Z" fill="#4A001F"/>
<path d="M141.633 277.719C143.162 277.719 144.401 276.48 144.401 274.952C144.401 273.423 143.162 272.184 141.633 272.184C140.105 272.184 138.866 273.423 138.866 274.952C138.866 276.48 140.105 277.719 141.633 277.719Z" fill="#4A001F"/>
<path d="M167.798 272.939C170.16 272.939 172.075 271.024 172.075 268.662C172.075 266.3 170.16 264.385 167.798 264.385C165.436 264.385 163.521 266.3 163.521 268.662C163.521 271.024 165.436 272.939 167.798 272.939Z" fill="#4A001F"/>
<path d="M271.706 309.923C273.234 309.923 274.473 308.684 274.473 307.155C274.473 305.627 273.234 304.388 271.706 304.388C270.178 304.388 268.938 305.627 268.938 307.155C268.938 308.684 270.178 309.923 271.706 309.923Z" fill="#4A001F"/>
<path d="M207.047 349.926C208.575 349.926 209.814 348.687 209.814 347.158C209.814 345.63 208.575 344.391 207.047 344.391C205.518 344.391 204.279 345.63 204.279 347.158C204.279 348.687 205.518 349.926 207.047 349.926Z" fill="#4A001F"/>
</svg>
